<svg xmlns="http://www.w3.org/2000/svg" viewBox="0 0 1600 900" role="img" aria-labelledby="title desc">
  <title id="title">Research progression from encrypted streams to self-healing QoE systems</title>
  <desc id="desc">A clean scientific systems map linking encrypted network observations, playback and visual signals, human response, explainable prediction, drift detection, and recovery.</desc>
  <rect width="1600" height="900" fill="#101416"/>
  <g font-family="Arial, Helvetica, sans-serif" letter-spacing="0">
    <text x="930" y="90" fill="#8d999d" font-size="18">RESEARCH SYSTEM</text>
    <text x="930" y="128" fill="#ffffff" font-size="28" font-weight="700">QoE as an observable, human, adaptive process</text>
    <path d="M1050 215 C1210 215 1210 330 1050 330 C890 330 890 445 1050 445 C1210 445 1210 560 1050 560 C890 560 890 675 1050 675" fill="none" stroke="#344044" stroke-width="8"/>
    <g transform="translate(830 180)">
      <rect width="440" height="92" rx="4" fill="#172023" stroke="#4c5a5e"/>
      <circle cx="42" cy="46" r="15" fill="#1aa6b7"/>
      <text x="78" y="39" fill="#ffffff" font-size="22" font-weight="700">Encrypted delivery</text>
      <text x="78" y="65" fill="#9da8ab" font-size="16">HTTPS · QUIC · packet and flow evidence</text>
    </g>
    <g transform="translate(930 300)">
      <rect width="440" height="92" rx="4" fill="#172023" stroke="#4c5a5e"/>
      <circle cx="42" cy="46" r="15" fill="#e6a13a"/>
      <text x="78" y="39" fill="#ffffff" font-size="22" font-weight="700">Human experience</text>
      <text x="78" y="65" fill="#9da8ab" font-size="16">Emotion · ratings · comments · advertising</text>
    </g>
    <g transform="translate(830 420)">
      <rect width="440" height="92" rx="4" fill="#172023" stroke="#4c5a5e"/>
      <circle cx="42" cy="46" r="15" fill="#1aa6b7"/>
      <text x="78" y="39" fill="#ffffff" font-size="22" font-weight="700">Explainable inference</text>
      <text x="78" y="65" fill="#9da8ab" font-size="16">Multimodal fusion · ensembles · SHAP</text>
    </g>
    <g transform="translate(930 540)">
      <rect width="440" height="92" rx="4" fill="#172023" stroke="#4c5a5e"/>
      <circle cx="42" cy="46" r="15" fill="#df513d"/>
      <text x="78" y="39" fill="#ffffff" font-size="22" font-weight="700">Performance drift</text>
      <text x="78" y="65" fill="#9da8ab" font-size="16">Residual monitoring · uncertainty · alarms</text>
    </g>
    <g transform="translate(830 660)">
      <rect width="440" height="92" rx="4" fill="#df513d"/>
      <circle cx="42" cy="46" r="15" fill="#ffffff"/>
      <text x="78" y="39" fill="#ffffff" font-size="22" font-weight="700">Self-healing action</text>
      <text x="78" y="65" fill="#ffe7e2" font-size="16">Recovery decisions balanced against cost</text>
    </g>
    <g fill="#607074">
      <circle cx="1345" cy="225" r="4"/><circle cx="1375" cy="225" r="4"/><circle cx="1405" cy="225" r="4"/>
      <circle cx="780" cy="465" r="4"/><circle cx="750" cy="465" r="4"/><circle cx="720" cy="465" r="4"/>
    </g>
  </g>
</svg>
